<mxfile host="app.diagrams.net" modified="2021-09-15T08:39:32.158Z" agent="5.0 (Windows NT 10.0; Win64; x64) AppleWebKit/537.36 (KHTML, like Gecko) Chrome/93.0.4577.63 Safari/537.36" etag="Re7KvCApOb0Rz2x4C22K" version="15.2.7" type="github">
  <diagram name="Page-1" id="e7e014a7-5840-1c2e-5031-d8a46d1fe8dd">
    <mxGraphModel dx="1038" dy="547" grid="1" gridSize="10" guides="1" tooltips="1" connect="1" arrows="1" fold="1" page="1" pageScale="1" pageWidth="1169" pageHeight="826" background="none" math="0" shadow="0">
      <root>
        <mxCell id="0" />
        <mxCell id="1" parent="0" />
        <mxCell id="NUNRzn7dmsTYWL_-eybA-43" style="edgeStyle=orthogonalEdgeStyle;rounded=0;orthogonalLoop=1;jettySize=auto;html=1;exitX=0.5;exitY=1;exitDx=0;exitDy=0;entryX=0.5;entryY=0;entryDx=0;entryDy=0;" edge="1" parent="1" source="NUNRzn7dmsTYWL_-eybA-41" target="NUNRzn7dmsTYWL_-eybA-42">
          <mxGeometry relative="1" as="geometry" />
        </mxCell>
        <mxCell id="NUNRzn7dmsTYWL_-eybA-41" value="START" style="ellipse;whiteSpace=wrap;html=1;" vertex="1" parent="1">
          <mxGeometry x="300" y="10" width="120" height="60" as="geometry" />
        </mxCell>
        <mxCell id="NUNRzn7dmsTYWL_-eybA-46" style="edgeStyle=orthogonalEdgeStyle;rounded=0;orthogonalLoop=1;jettySize=auto;html=1;exitX=0.5;exitY=1;exitDx=0;exitDy=0;entryX=0.5;entryY=0;entryDx=0;entryDy=0;" edge="1" parent="1" source="NUNRzn7dmsTYWL_-eybA-42" target="NUNRzn7dmsTYWL_-eybA-45">
          <mxGeometry relative="1" as="geometry" />
        </mxCell>
        <mxCell id="NUNRzn7dmsTYWL_-eybA-42" value="Application" style="rounded=1;whiteSpace=wrap;html=1;" vertex="1" parent="1">
          <mxGeometry x="300" y="110" width="120" height="60" as="geometry" />
        </mxCell>
        <mxCell id="NUNRzn7dmsTYWL_-eybA-55" value="" style="edgeStyle=orthogonalEdgeStyle;rounded=0;orthogonalLoop=1;jettySize=auto;html=1;" edge="1" parent="1" source="NUNRzn7dmsTYWL_-eybA-44" target="NUNRzn7dmsTYWL_-eybA-52">
          <mxGeometry relative="1" as="geometry" />
        </mxCell>
        <mxCell id="NUNRzn7dmsTYWL_-eybA-44" value="Evaluating Applicant" style="rounded=1;whiteSpace=wrap;html=1;" vertex="1" parent="1">
          <mxGeometry x="300" y="320" width="120" height="60" as="geometry" />
        </mxCell>
        <mxCell id="NUNRzn7dmsTYWL_-eybA-47" style="edgeStyle=orthogonalEdgeStyle;rounded=0;orthogonalLoop=1;jettySize=auto;html=1;exitX=0.5;exitY=1;exitDx=0;exitDy=0;" edge="1" parent="1" source="NUNRzn7dmsTYWL_-eybA-45" target="NUNRzn7dmsTYWL_-eybA-44">
          <mxGeometry relative="1" as="geometry" />
        </mxCell>
        <mxCell id="NUNRzn7dmsTYWL_-eybA-45" value="Fiiling Forms" style="rounded=1;whiteSpace=wrap;html=1;" vertex="1" parent="1">
          <mxGeometry x="300" y="220" width="120" height="60" as="geometry" />
        </mxCell>
        <mxCell id="NUNRzn7dmsTYWL_-eybA-51" style="edgeStyle=orthogonalEdgeStyle;rounded=0;orthogonalLoop=1;jettySize=auto;html=1;exitX=1;exitY=0.5;exitDx=0;exitDy=0;" edge="1" parent="1" source="NUNRzn7dmsTYWL_-eybA-48" target="NUNRzn7dmsTYWL_-eybA-50">
          <mxGeometry relative="1" as="geometry" />
        </mxCell>
        <mxCell id="NUNRzn7dmsTYWL_-eybA-48" value="Denny" style="rounded=1;whiteSpace=wrap;html=1;" vertex="1" parent="1">
          <mxGeometry x="490" y="440" width="120" height="60" as="geometry" />
        </mxCell>
        <mxCell id="NUNRzn7dmsTYWL_-eybA-50" value="End" style="ellipse;whiteSpace=wrap;html=1;" vertex="1" parent="1">
          <mxGeometry x="690" y="445" width="90" height="50" as="geometry" />
        </mxCell>
        <mxCell id="NUNRzn7dmsTYWL_-eybA-62" style="edgeStyle=orthogonalEdgeStyle;rounded=0;orthogonalLoop=1;jettySize=auto;html=1;" edge="1" parent="1" source="NUNRzn7dmsTYWL_-eybA-52" target="NUNRzn7dmsTYWL_-eybA-48">
          <mxGeometry relative="1" as="geometry" />
        </mxCell>
        <mxCell id="NUNRzn7dmsTYWL_-eybA-63" value="" style="edgeStyle=orthogonalEdgeStyle;rounded=0;orthogonalLoop=1;jettySize=auto;html=1;" edge="1" parent="1" source="NUNRzn7dmsTYWL_-eybA-52" target="NUNRzn7dmsTYWL_-eybA-60">
          <mxGeometry relative="1" as="geometry" />
        </mxCell>
        <mxCell id="NUNRzn7dmsTYWL_-eybA-52" value="Is Approved" style="rhombus;whiteSpace=wrap;html=1;" vertex="1" parent="1">
          <mxGeometry x="320" y="430" width="80" height="80" as="geometry" />
        </mxCell>
        <mxCell id="NUNRzn7dmsTYWL_-eybA-56" value="NO" style="text;html=1;align=center;verticalAlign=middle;resizable=0;points=[];autosize=1;strokeColor=none;fillColor=none;" vertex="1" parent="1">
          <mxGeometry x="435" y="440" width="30" height="20" as="geometry" />
        </mxCell>
        <mxCell id="NUNRzn7dmsTYWL_-eybA-57" value="Yes" style="text;html=1;align=center;verticalAlign=middle;resizable=0;points=[];autosize=1;strokeColor=none;fillColor=none;" vertex="1" parent="1">
          <mxGeometry x="370" y="510" width="30" height="20" as="geometry" />
        </mxCell>
        <mxCell id="NUNRzn7dmsTYWL_-eybA-66" value="" style="edgeStyle=orthogonalEdgeStyle;rounded=0;orthogonalLoop=1;jettySize=auto;html=1;" edge="1" parent="1" source="NUNRzn7dmsTYWL_-eybA-59" target="NUNRzn7dmsTYWL_-eybA-65">
          <mxGeometry relative="1" as="geometry" />
        </mxCell>
        <mxCell id="NUNRzn7dmsTYWL_-eybA-59" value="Internnship Start" style="shape=process;whiteSpace=wrap;html=1;backgroundOutline=1;" vertex="1" parent="1">
          <mxGeometry x="300" y="690" width="120" height="60" as="geometry" />
        </mxCell>
        <mxCell id="NUNRzn7dmsTYWL_-eybA-64" value="" style="edgeStyle=orthogonalEdgeStyle;rounded=0;orthogonalLoop=1;jettySize=auto;html=1;" edge="1" parent="1" source="NUNRzn7dmsTYWL_-eybA-60" target="NUNRzn7dmsTYWL_-eybA-59">
          <mxGeometry relative="1" as="geometry" />
        </mxCell>
        <mxCell id="NUNRzn7dmsTYWL_-eybA-60" value="Sending Reguired Documentation" style="rounded=1;whiteSpace=wrap;html=1;" vertex="1" parent="1">
          <mxGeometry x="300" y="560" width="120" height="60" as="geometry" />
        </mxCell>
        <mxCell id="NUNRzn7dmsTYWL_-eybA-65" value="End" style="ellipse;whiteSpace=wrap;html=1;" vertex="1" parent="1">
          <mxGeometry x="500" y="700" width="70" height="40" as="geometry" />
        </mxCell>
      </root>
    </mxGraphModel>
  </diagram>
</mxfile>
